<?xml version="1.0" encoding="UTF-8" standalone="no"?>
<!-- Created with Inkscape (http://www.inkscape.org/) -->

<svg
   xmlns:dc="http://purl.org/dc/elements/1.1/"
   xmlns:cc="http://creativecommons.org/ns#"
   xmlns:rdf="http://www.w3.org/1999/02/22-rdf-syntax-ns#"
   xmlns:svg="http://www.w3.org/2000/svg"
   xmlns="http://www.w3.org/2000/svg"
   xmlns:sodipodi="http://sodipodi.sourceforge.net/DTD/sodipodi-0.dtd"
   xmlns:inkscape="http://www.inkscape.org/namespaces/inkscape"
   id="svg3336"
   version="1.1"
   inkscape:version="0.91 r13725"
   xml:space="preserve"
   width="148.48233"
   height="238.25435"
   viewBox="0 0 148.48233 238.25435"
   sodipodi:docname="tree1.svg"><metadata
     id="metadata3342"><rdf:RDF><cc:Work
         rdf:about=""><dc:format>image/svg+xml</dc:format><dc:type
           rdf:resource="http://purl.org/dc/dcmitype/StillImage" /><dc:title></dc:title></cc:Work></rdf:RDF></metadata><defs
     id="defs3340"><clipPath
       clipPathUnits="userSpaceOnUse"
       id="clipPath3352"><path
         d="M 0,800 800,800 800,0 0,0 0,800 Z"
         id="path3354"
         inkscape:connector-curvature="0" /></clipPath><clipPath
       clipPathUnits="userSpaceOnUse"
       id="clipPath3506"><path
         d="M 0,800 800,800 800,0 0,0 0,800 Z"
         id="path3508"
         inkscape:connector-curvature="0" /></clipPath></defs><sodipodi:namedview
     pagecolor="#ffffff"
     bordercolor="#666666"
     borderopacity="1"
     objecttolerance="10"
     gridtolerance="10"
     guidetolerance="10"
     inkscape:pageopacity="0"
     inkscape:pageshadow="2"
     inkscape:window-width="1366"
     inkscape:window-height="705"
     id="namedview3338"
     showgrid="false"
     fit-margin-top="0"
     fit-margin-left="0"
     fit-margin-right="0"
     fit-margin-bottom="0"
     inkscape:zoom="2.144"
     inkscape:cx="92.688907"
     inkscape:cy="117.60484"
     inkscape:window-x="-8"
     inkscape:window-y="-8"
     inkscape:window-maximized="1"
     inkscape:current-layer="g3344" /><g
     id="g3344"
     inkscape:groupmode="layer"
     inkscape:label="24452-NV4IAR"
     transform="matrix(1.25,0,0,-1.25,-306.17819,985.17599)"><text
       transform="matrix(1,0,0,-1,211.6025,715.6953)"
       style="font-variant:normal;font-weight:normal;font-stretch:normal;font-size:26.61249924px;font-family:Bebas;-inkscape-font-specification:Bebas;writing-mode:lr-tb;fill:#ffffff;fill-opacity:1;fill-rule:nonzero;stroke:none"
       id="text3498"><tspan
         x="0 14.250994 20.696541 34.295528 49.917065 57.262115 69.876442 82.064964 94.679291 114.44706 127.06138 142.25713 155.85611 170.12041 177.46545 187.01935 201.04413 216.09084 228.70517 241.31949 255.58379 260.4805 276.95361 281.85031 295.931 308.11954 324.03381 339.22952 352.82852 367.09283"
         y="0"
         sodipodi:role="line"
         id="tspan3500">CITY ELEMENTS (TREES &amp; PLANTS)</tspan></text>
<g
       id="g3710"
       transform="translate(343.5723,610.03731)"><path
         d="m 0,0 c 0,-6.903 -14.099,-12.5 -31.491,-12.5 -17.392,0 -31.491,5.597 -31.491,12.5 0,6.903 14.099,12.5 31.491,12.5 C -14.099,12.5 0,6.903 0,0"
         style="fill:#c6c2af;fill-opacity:1;fill-rule:nonzero;stroke:none"
         id="path3712"
         inkscape:connector-curvature="0" /></g><g
       id="g3714"
       transform="translate(304.1504,671.05191)"><path
         d="m 0,0 c 0,0 -11.247,-8.078 -18.717,2.793 0,0 -12.452,-3.106 -15.256,8.385 0,0 -14.944,1.241 -14.322,12.735 0,0 -18.055,8.695 -6.224,25.158 0,0 -11.52,10.25 1.554,21.741 0,0 -9.961,14.907 7.473,19.256 0,0 1.558,17.706 18.991,13.668 0,0 4.668,14.909 21.481,9.318 0,0 15.103,11.204 23.661,-3.728 0,0 16.503,2.174 19.613,-11.492 0,0 15.878,-2.175 14.321,-18.015 0,0 12.19,-11.181 4.404,-24.535 0,0 7.763,-22.242 -9.075,-24.226 0,0 0.538,-9.85 -9.427,-14.199 0,0 -1.782,-11.892 -12.364,-10.026 0,0 -8.096,-9.01 -14.01,-4.04 L 0,0 Z"
         style="fill:#b4cb34;fill-opacity:1;fill-rule:nonzero;stroke:none"
         id="path3716"
         inkscape:connector-curvature="0" /></g><g
       id="g3718"
       transform="translate(356.7251,750.87131)"><path
         d="m 0,0 c 1.558,15.839 -14.32,18.015 -14.32,18.015 7.904,-34.152 -11.405,-77.849 -41.405,-81.741 -30,-3.891 -45.145,7.82 -45.145,7.82 -0.622,-11.494 14.323,-12.736 14.323,-12.736 2.803,-11.491 15.255,-8.384 15.255,-8.384 7.471,-10.871 18.717,-2.793 18.717,-2.793 l 12.103,2.793 c 5.914,-4.97 14.01,4.04 14.01,4.04 10.583,-1.867 12.364,10.026 12.364,10.026 9.965,4.349 9.427,14.198 9.427,14.198 16.838,1.985 9.076,24.227 9.076,24.227 C 12.19,-11.181 0,0 0,0"
         style="fill:#aab72c;fill-opacity:1;fill-rule:nonzero;stroke:none"
         id="path3720"
         inkscape:connector-curvature="0" /></g><g
       id="g3722"
       transform="translate(285.4336,699.70431)"><path
         d="m 0,0 c 0,0 17.432,-1.806 18.678,-10.833 1.246,-9.026 -1.867,-81.839 -1.867,-81.839 l 18.679,0 c 0,0 -8.096,81.841 -5.293,87.773 2.8,5.931 11.83,9.284 11.83,9.284 0,0 -10.276,0.257 -13.697,-2.838 C 24.906,-1.549 20.545,-2.321 15.875,-1.549 11.207,-0.774 6.537,0.515 0,0"
         style="fill:#695020;fill-opacity:1;fill-rule:nonzero;stroke:none"
         id="path3724"
         inkscape:connector-curvature="0" /></g></g></svg>