<?xml version="1.0" encoding="UTF-8" standalone="no"?> 
<!-- Created with Inkscape (http://www.inkscape.org/) -->

<svg
   xmlns:dc="http://purl.org/dc/elements/1.1/"
   xmlns:cc="http://creativecommons.org/ns#"
   xmlns:rdf="http://www.w3.org/1999/02/22-rdf-syntax-ns#"
   xmlns:svg="http://www.w3.org/2000/svg"
   xmlns="http://www.w3.org/2000/svg"
   xmlns:sodipodi="http://sodipodi.sourceforge.net/DTD/sodipodi-0.dtd"
   xmlns:inkscape="http://www.inkscape.org/namespaces/inkscape"
   width="59.14698mm"
   height="59.094231mm"
   viewBox="0 0 209.57591 209.38901"
   id="svg3518"
   version="1.1"
   inkscape:version="0.91 r13725"
   sodipodi:docname="earth.svg">
  <defs
     id="defs3520" />
  <sodipodi:namedview
     id="base"
     pagecolor="#ffffff"
     bordercolor="#666666"
     borderopacity="1.0"
     inkscape:pageopacity="0.0"
     inkscape:pageshadow="2"
     inkscape:zoom="1.4"
     inkscape:cx="14.946934"
     inkscape:cy="30.694496"
     inkscape:document-units="px"
     inkscape:current-layer="layer1"
     showgrid="false"
     fit-margin-top="0"
     fit-margin-left="0"
     fit-margin-right="0"
     fit-margin-bottom="0"
     inkscape:window-width="1440"
     inkscape:window-height="837"
     inkscape:window-x="-8"
     inkscape:window-y="-8"
     inkscape:window-maximized="1" />
  <metadata
     id="metadata3523">
    <rdf:RDF>
      <cc:Work
         rdf:about="">
        <dc:format>image/svg+xml</dc:format>
        <dc:type
           rdf:resource="http://purl.org/dc/dcmitype/StillImage" />
        <dc:title></dc:title>
      </cc:Work>
    </rdf:RDF>
  </metadata>
  <g
     inkscape:label="Capa 1"
     inkscape:groupmode="layer"
     id="layer1"
     transform="translate(-115.21205,-119.09627)">
    <ellipse
       ry="103.88192"
       rx="103.97538"
       cy="223.79077"
       cx="220"
       id="tierra"
       style="color:#000000;display:inline;overflow:visible;visibility:visible;fill:#2dcc70;fill-opacity:1;fill-rule:nonzero;stroke:none;stroke-width:2;marker:none;enable-background:accumulate" />
    <path
       inkscape:connector-curvature="0"
       id="mar"
       d="m 206.34923,327.7907 c -34.67882,-4.80137 -64.19166,-25.73713 -79.90443,-56.68246 -7.65863,-15.08321 -11.23275,-30.18043 -11.23275,-47.44757 0,-27.68809 10.15519,-52.83635 29.33551,-72.64622 16.05633,-16.58333 35.21883,-26.75698 58.09125,-30.84146 5.22497,-0.93306 7.54556,-1.07672 17.3926,-1.07672 12.78772,0 18.49473,0.73579 28.87801,3.72318 35.22135,10.13363 62.82164,38.15468 72.41957,73.52363 2.81676,10.3799 3.73889,18.73902 3.38797,30.71096 -0.47019,16.04045 -3.54214,28.51669 -10.5541,42.86375 -14.05521,28.75808 -40.53726,49.47443 -72.10083,56.40287 -9.77562,2.14582 -26.00634,2.81392 -35.7128,1.47004 z m 38.41314,-27.64496 c 5.11408,-0.78873 10.70907,-3.63177 12.53473,-6.36939 0.73564,-1.10309 2.63556,-3.02573 4.22209,-4.27253 l 2.88462,-2.26691 -0.21363,-2.57584 c -0.24943,-3.00767 0.44312,-4.24575 5.40414,-9.66111 1.62294,-1.77154 3.32611,-4.08165 3.78486,-5.13357 0.76007,-1.74276 0.78243,-2.32441 0.2517,-6.55061 l -0.5824,-4.63802 2.07385,-3.94233 c 1.14059,-2.16827 3.06086,-4.98588 4.26731,-6.26133 4.94441,-5.22743 10.44094,-13.76258 9.4811,-14.72243 -0.12208,-0.12207 -1.10325,-0.0514 -2.18043,0.15706 -4.1694,0.80686 -3.92845,0.96635 -8.85181,-5.85966 -4.19501,-5.81611 -6.77333,-10.26675 -6.78427,-11.71078 -0.0112,-1.49185 -3.43265,-9.25392 -5.17163,-11.73299 -2.45718,-3.50294 -5.40052,-5.16796 -12.23098,-6.91893 -2.80898,-0.72009 -5.64982,-1.55646 -6.31296,-1.85861 -0.97036,-0.44212 -1.46844,-0.41351 -2.55161,0.14661 -4.13085,2.13618 -14.0913,0.85215 -15.4917,-1.99706 -0.18807,-0.38264 -0.69793,-2.15668 -1.13302,-3.94233 -0.43509,-1.78563 -0.82506,-3.27256 -0.86652,-3.30428 -0.0418,-0.0317 -1.15436,0.0853 -2.473,0.25991 -1.52312,0.20174 -3.13016,0.0986 -4.40612,-0.28265 -2.46497,-0.73658 -4.08364,-0.46568 -9.36723,1.56767 -2.71492,1.04481 -4.92109,1.58683 -6.49324,1.59527 -1.30969,0.007 -2.95479,0.22854 -3.65588,0.49222 -1.31799,0.49575 -5.45046,5.80101 -5.45046,6.99732 0,1.13848 -1.82224,3.05439 -4.79707,5.04362 -6.30544,4.2164 -7.21733,5.94375 -7.86043,14.89029 l -0.45921,6.38825 1.67571,3.35161 c 2.48279,4.9659 5.98653,9.30654 9.92854,12.3001 6.25576,4.75062 5.53269,4.51606 10.20982,3.31214 2.23144,-0.57441 5.33581,-1.6468 6.89855,-2.3831 4.09227,-1.92814 5.23012,-1.91856 5.89855,0.0497 0.80349,2.36603 1.65503,2.69191 4.60467,1.76211 3.83148,-1.20778 3.87155,-1.18778 4.22265,2.10874 1.01995,9.57676 0.83772,8.9414 3.14764,10.97465 1.86565,1.6422 2.1577,2.15988 2.43519,4.31591 0.17342,1.34743 0.73309,3.70215 1.24374,5.2327 l 0.92843,2.78281 -1.38426,3.35452 c -2.08395,5.04999 -2.26521,7.08459 -0.84681,9.50489 0.6393,1.09088 1.58959,2.37004 2.11174,2.84258 0.52215,0.47256 1.08711,1.4863 1.25547,2.25278 0.16836,0.76647 0.95307,2.77614 1.7438,4.46595 1.17792,2.51719 1.47323,3.81451 1.63412,7.17928 l 0.19632,4.1069 1.44869,-0.24581 c 0.79677,-0.13521 3.08127,-0.49762 5.07664,-0.80535 z m -85.13375,-7.258 c 2.014,-0.9268 2.06122,-1.06038 1.23351,-3.48959 -0.64575,-1.89516 -0.64267,-2.36623 0.0325,-4.97176 0.4102,-1.58303 1.16717,-3.9472 1.68214,-5.2537 1.49405,-3.79045 1.02886,-4.97368 -2.97476,-7.56614 -1.83889,-1.19076 -4.07393,-2.36634 -4.96675,-2.61243 -1.73003,-0.47684 -5.2298,-2.34218 -6.66761,-3.55376 -0.47856,-0.40324 -1.66363,-2.35202 -2.6335,-4.33061 -0.96988,-1.97859 -2.70231,-4.67074 -3.84985,-5.98254 -1.9707,-2.25282 -3.40109,-3.25614 -8.86365,-6.21731 -1.26664,-0.68663 -3.09278,-1.88311 -4.05808,-2.65884 -0.96531,-0.77574 -1.87567,-1.28986 -2.02305,-1.14249 -0.36542,0.36543 1.39961,6.58978 3.3875,11.94588 4.55948,12.28491 11.87987,23.84274 20.93092,33.04683 3.83059,3.89536 4.05756,4.04757 5.62377,3.77137 0.89764,-0.15829 2.31374,-0.6015 3.14691,-0.98491 z m 120.7575,-9.0487 c 1.27578,-1.08414 2.81301,-2.806 3.41604,-3.82637 1.84849,-3.12775 3.88676,-12.4839 3.25729,-14.95169 -0.31952,-1.25273 -0.35527,-1.22557 -1.59743,1.2138 -0.93832,1.84255 -1.9278,2.93435 -3.78319,4.17422 -2.09392,1.39926 -2.57944,1.98816 -2.91379,3.53424 -0.22063,1.02036 -0.89895,3.06905 -1.50736,4.55264 -1.52187,3.71119 -1.4568,7.27432 0.13284,7.27432 0.37178,0 1.71977,-0.88702 2.9956,-1.97116 z m 35.19761,-70.84074 c -1.97019,-17.08006 -8.6522,-33.68681 -19.05098,-47.34721 -5.82874,-7.65693 -15.89761,-17.13232 -23.07598,-21.71577 l -2.46284,-1.57255 -2.24967,1.05371 -2.24972,1.05371 -1.87395,-1.33534 c -1.03066,-0.73442 -1.93633,-1.75274 -2.01257,-2.26293 -0.0846,-0.56626 -1.04203,-1.41116 -2.4577,-2.16897 l -2.31901,-1.24137 -5.54466,0.48967 c -4.27014,0.37711 -6.43346,0.35142 -9.41093,-0.11177 -3.72276,-0.57911 -4.00758,-0.5572 -7.6737,0.59033 -10.41311,3.25939 -12.37783,4.29628 -13.60708,7.18119 -1.10224,2.58685 -0.94857,2.75922 2.42332,2.71861 l 3.05928,-0.0369 0.91012,2.42063 c 0.79509,2.11473 1.12653,2.48073 2.62234,2.89617 2.8932,0.80357 3.70328,0.62085 4.55181,-1.02664 0.42702,-0.82905 1.30379,-2.20112 1.94838,-3.04907 l 1.17203,-1.54169 0.59826,1.0779 c 1.30398,2.34924 1.62187,3.9891 1.12853,5.8213 -0.39679,1.47355 -0.85345,1.96963 -2.58937,2.81301 -1.15913,0.56316 -2.4788,1.02394 -2.93253,1.02394 -0.45369,0 -2.22969,-1.15871 -3.94659,-2.57491 -3.11652,-2.57063 -3.1245,-2.57388 -4.82651,-1.97115 -0.93767,0.33205 -2.96509,1.76172 -4.50538,3.17704 -2.57179,2.36311 -6.17141,4.47701 -10.55271,6.19715 -2.00651,0.78777 -2.62699,2.34469 -1.76431,4.4273 0.47814,1.15433 0.43482,1.5207 -0.2953,2.49752 -1.33135,1.78112 -2.41247,2.285 -6.63887,3.09418 l -3.92799,0.75204 -0.37902,1.82431 c -0.20848,1.00338 -0.31933,3.48094 -0.24627,5.50569 l 0.13283,3.68138 2.319,0.59986 c 1.27546,0.32991 3.63525,0.60387 5.24395,0.60879 2.70892,0.009 3.02816,-0.10235 4.32384,-1.49841 0.7694,-0.82905 2.23966,-2.69437 3.26725,-4.14515 1.32931,-1.87674 2.49049,-2.92745 4.02461,-3.64178 1.18594,-0.5522 2.51222,-1.3197 2.94723,-1.70556 0.43505,-0.38587 2.03419,-0.961 3.55365,-1.27809 2.66413,-0.55594 2.83027,-0.53338 4.65928,0.63293 1.04318,0.6652 2.01179,1.56518 2.1525,1.99996 0.14071,0.43477 0.97529,1.05066 1.85461,1.36863 1.30402,0.47153 1.59877,0.81746 1.59877,1.87635 0,1.26542 0.0649,1.29823 2.56724,1.29823 2.34229,0 2.52749,-0.0742 2.11383,-0.84722 -0.24939,-0.46597 -1.8221,-2.17599 -3.49485,-3.80003 -2.32231,-2.25462 -3.04143,-3.26062 -3.04143,-4.2546 0,-0.71599 0.10751,-1.3018 0.23895,-1.3018 0.32869,0 5.09186,2.63132 7.71535,4.26218 1.69618,1.05441 2.36633,1.85714 3.13824,3.75893 0.53981,1.33001 1.45058,3.00653 2.02393,3.72561 l 1.04254,1.30741 -0.007,-1.54119 -0.007,-1.54118 3.47853,-0.26718 c 1.91318,-0.14694 4.15683,-0.5326 4.98588,-0.85702 1.42099,-0.55607 1.50735,-0.72269 1.50735,-2.90932 0,-2.94104 1.20399,-4.16167 6.21699,-6.30284 2.77981,-1.18732 3.92902,-1.45645 5.20053,-1.21791 l 1.63222,0.3062 -1.19115,1.24329 c -1.50837,1.57439 -1.5035,2.12387 0.02,2.24993 0.66602,0.0551 2.23135,0.65561 3.47852,1.33439 2.03284,1.10642 2.26752,1.39862 2.26752,2.82332 l 0,1.58917 -3.59446,-0.38075 c -5.17502,-0.54818 -8.74017,-0.27461 -10.96016,0.84103 -4.39917,2.21081 -4.55862,3.47776 -1.07705,8.55726 3.28414,4.7914 3.43636,4.86539 6.32029,3.07264 l 2.3544,-1.46355 0,3.42143 c 0,1.88179 0.12666,3.75156 0.28148,4.15506 0.21952,0.57197 -0.0362,0.73364 -1.15951,0.73364 -0.79255,0 -1.44099,0.0796 -1.44099,0.17692 0,0.0973 2.94441,4.42806 6.54314,9.6239 7.59723,10.96888 9.2158,13.64678 9.22179,15.25726 0.0102,2.69936 2.36938,4.10195 5.47139,3.25263 2.73105,-0.74775 14.24935,-8.16336 14.76436,-9.50545 0.12685,-0.33054 -0.60948,-1.90078 -1.63625,-3.48944 -1.79844,-2.78248 -1.94435,-2.89334 -3.97753,-3.02131 -2.82177,-0.17762 -3.61496,-0.83034 -5.52958,-4.5502 -1.52833,-2.96941 -1.56377,-3.1366 -0.60203,-2.84151 0.56209,0.17244 2.37858,1.31222 4.03667,2.53281 1.78592,1.31472 3.77085,2.35689 4.86993,2.5569 2.89783,0.52737 5.72429,2.16127 9.74476,5.6332 3.74581,3.23476 4.6416,4.52163 6.07271,8.72392 0.43439,1.27546 1.22736,3.25822 1.76217,4.40613 l 0.97245,2.08711 0.14235,-5.79753 c 0.0784,-3.18865 -0.086,-7.778 -0.36525,-10.19857 z m -190.17247,1.97356 c 0.74071,-7.95706 1.21287,-9.78488 3.47404,-13.44889 1.15282,-1.86804 2.09603,-3.49168 2.09603,-3.6081 0,-0.11641 1.47433,-2.56314 3.27629,-5.43718 2.42375,-3.86578 3.09385,-5.26333 2.57522,-5.3708 -0.38559,-0.0799 -1.12944,0.084 -1.65298,0.36417 -0.52356,0.2802 -0.95192,0.33983 -0.95192,0.13253 0,-0.9811 1.79626,-2.67545 5.78336,-5.4553 5.47839,-3.81956 5.69899,-4.50444 3.27117,-10.15611 -0.74649,-1.73776 -0.74839,-2.31838 -0.0134,-4.10377 0.22178,-0.53871 0.1225,-0.8109 -0.29523,-0.80944 -0.75137,0.003 -5.28251,6.92128 -8.35175,12.75236 -5.68232,10.79551 -9.57732,24.65274 -10.3708,36.89623 -0.38497,5.93991 0.57946,4.48016 1.15995,-1.7557 z m 76.53185,-55.17816 c 0,1.97315 0.053,1.98708 4.46554,1.17403 1.96096,-0.36133 3.45514,-0.96583 4.45922,-1.8041 l 1.51015,-1.2607 -2.33618,-2.48607 c -1.28487,-1.36735 -2.81491,-3.26874 -3.40004,-4.22534 -1.19726,-1.95722 -1.41187,-2.02371 -3.33033,-1.03165 -1.31683,0.68097 -1.36836,0.8294 -1.36836,3.94233 0,1.77909 -0.11104,3.23471 -0.24679,3.23471 -0.13575,0 -0.94259,-0.29072 -1.79301,-0.64604 -1.5382,-0.6427 -1.55017,-0.63763 -2.32222,0.98135 -0.71921,1.50822 -0.72056,1.71209 -0.0181,2.78418 l 0.75795,1.1568 1.8111,-1.76847 1.81106,-1.76847 0,1.71744 z m -34.2276,-8.74589 c 9.60002,-10.04485 12.80219,-13.09004 14.32008,-13.61805 0.87302,-0.30369 2.09425,-1.19252 2.71385,-1.97516 l 1.12653,-1.42299 -1.12653,0.33505 c -0.6196,0.18428 -3.63106,1.5433 -6.69216,3.02005 -9.81145,4.73328 -23.63695,14.72882 -23.33191,16.86848 0.10908,0.76521 0.41999,0.96632 1.34804,0.87194 0.66345,-0.0675 1.90293,0.17027 2.75441,0.5283 2.51128,1.05591 4.42134,0.0657 8.88769,-4.60762 z"
       style="fill:#336f7a;fill-opacity:1" />
  </g>
</svg>
